<svg width="184" height="178" viewBox="0 0 184 178" fill="none" xmlns="http://www.w3.org/2000/svg">
<path d="M114.013 171.003C112.133 162.993 108.003 155.503 101.963 149.873C95.5934 143.933 87.3634 140.283 78.7234 139.323C77.4434 139.183 74.0034 138.943 73.6934 140.793C73.3934 142.583 77.1234 143.393 78.1734 143.503C78.6634 143.553 79.1534 143.613 79.6434 143.693C79.8534 143.723 80.0534 143.753 80.2634 143.793C79.6934 143.683 79.6934 143.673 80.2434 143.793C81.0534 143.983 81.8634 144.183 82.6634 144.413C83.9434 144.763 81.8934 144.093 83.1334 144.563C83.5234 144.713 83.9134 144.843 84.2934 145.003C84.7434 145.183 85.1834 145.373 85.6234 145.563C85.8134 145.643 86.0034 145.733 86.1834 145.823C85.9434 145.703 85.9434 145.703 86.1834 145.823C89.2834 147.383 91.9234 149.343 94.3634 151.783C99.5934 157.013 102.993 163.753 104.673 170.913C104.833 171.613 106.173 172.233 106.693 172.453C107.803 172.913 109.133 173.133 110.333 173.143C111.643 173.143 114.433 172.903 113.993 171.003" fill="#153F26"/>
<path d="M63.7636 177.143C70.1936 166.993 74.9436 155.983 80.7236 145.473C86.3836 135.183 93.4135 125.073 104.024 119.433C110.504 115.993 117.714 114.753 125.004 114.983C126.994 115.043 125.724 111.563 125.294 110.753C124.454 109.173 122.834 106.733 120.784 106.673C114.044 106.463 107.294 107.523 101.104 110.283C95.6436 112.713 90.8636 116.433 86.8236 120.823C78.0036 130.393 72.6636 142.283 66.8436 153.753C64.0236 159.313 61.0136 164.813 57.6736 170.083C56.1436 172.493 62.0036 179.903 63.7536 177.153" fill="#153F26"/>
<path d="M31.7637 149.203C37.7637 143.573 42.1837 136.243 44.0437 128.203C46.0037 119.723 45.0437 110.763 41.5537 102.803C41.0337 101.623 39.5237 98.523 37.7637 99.183C36.0637 99.813 37.2237 103.453 37.6537 104.423C37.8537 104.873 38.0437 105.323 38.2237 105.783C38.3037 105.983 38.3737 106.173 38.4437 106.373C38.2637 105.823 38.2537 105.823 38.4437 106.353C38.6937 107.153 38.9137 107.953 39.1237 108.753C39.4637 110.043 39.0137 107.923 39.2237 109.233C39.2937 109.643 39.3637 110.053 39.4237 110.453C39.4937 110.933 39.5537 111.413 39.6037 111.893C39.6237 112.103 39.6437 112.303 39.6637 112.513C39.6537 112.253 39.6537 112.243 39.6637 112.513C39.8637 115.973 39.4837 119.243 38.5937 122.583C36.6837 129.723 32.5437 136.043 27.1837 141.083C26.6637 141.573 26.7837 143.043 26.8637 143.603C27.0237 144.793 27.4937 146.063 28.0837 147.093C28.7337 148.233 30.3437 150.533 31.7637 149.193" fill="#153F26"/>
<path d="M1.31359 108.753C13.3236 109.253 25.2336 107.853 37.2136 107.603C48.9536 107.363 61.2236 108.393 71.4236 114.763C77.6436 118.653 82.3136 124.283 85.7636 130.703C86.7036 132.463 89.0836 129.613 89.5736 128.843C90.5236 127.333 91.8236 124.703 90.8536 122.893C87.6636 116.953 83.3736 111.643 77.8936 107.653C73.0536 104.133 67.4436 101.863 61.6336 100.553C48.9336 97.703 35.9736 99.013 23.1236 99.713C16.8936 100.053 10.6236 100.193 4.39361 99.933C1.54361 99.813 -1.94641 108.593 1.31359 108.723" fill="#153F26"/>
<path d="M9.51376 67.073C17.3838 69.453 25.9437 69.613 33.8437 67.203C42.1737 64.663 49.4437 59.353 54.5938 52.353C55.3537 51.313 57.2837 48.453 55.8337 47.263C54.4337 46.113 51.8737 48.933 51.2437 49.793C50.9537 50.193 50.6538 50.5831 50.3538 50.9731C50.2238 51.1331 50.0938 51.303 49.9538 51.463C50.3338 51.033 50.3437 51.0231 49.9637 51.4431C49.3937 52.0531 48.8138 52.643 48.2238 53.233C47.2738 54.163 48.8838 52.7231 47.8538 53.5631C47.5338 53.8231 47.2238 54.093 46.8938 54.353C46.5138 54.653 46.1337 54.9431 45.7437 55.2231C45.5737 55.3431 45.4038 55.463 45.2338 55.583C45.4638 55.443 45.4538 55.443 45.2338 55.583C42.3338 57.483 39.3138 58.793 35.9838 59.683C28.8438 61.603 21.3038 61.173 14.2538 59.053C13.5638 58.843 12.3638 59.6931 11.9138 60.0331C10.9638 60.7631 10.1037 61.8031 9.49374 62.8431C8.83374 63.973 7.64376 66.513 9.51376 67.083" fill="#153F26"/>
<path d="M29.3136 20.4731C34.8836 31.1231 42.0536 40.7431 48.2536 50.9931C54.3336 61.0331 59.5736 72.1831 59.1536 84.1931C58.8936 91.5231 56.3636 98.3831 52.5236 104.583C51.4736 106.283 55.1236 106.923 56.0436 106.953C57.8336 107.023 60.7536 106.833 61.8336 105.093C65.3836 99.353 67.8337 92.9831 68.5437 86.2431C69.1737 80.2931 68.3336 74.3031 66.5536 68.6131C62.6736 56.1931 55.0536 45.6231 48.0236 34.8431C44.6136 29.6231 41.3636 24.263 38.4636 18.733C37.1436 16.203 27.7936 17.5731 29.3036 20.4631" fill="#153F26"/>
<path d="M69.5136 6.733C71.3936 14.743 75.5236 22.233 81.5636 27.863C87.9336 33.803 96.1636 37.453 104.804 38.413C106.084 38.553 109.524 38.793 109.834 36.943C110.134 35.153 106.404 34.343 105.354 34.233C104.864 34.183 104.374 34.123 103.894 34.043C103.684 34.013 103.474 33.983 103.274 33.943C103.844 34.053 103.844 34.063 103.294 33.943C102.484 33.753 101.674 33.553 100.874 33.323C99.5936 32.973 101.644 33.643 100.404 33.173C100.014 33.023 99.6236 32.893 99.2436 32.733C98.7936 32.553 98.3536 32.363 97.9136 32.173C97.7236 32.093 97.5336 32.003 97.3536 31.913C97.5936 32.033 97.5936 32.033 97.3536 31.913C94.2536 30.353 91.6136 28.393 89.1736 25.953C83.9436 20.723 80.5436 13.983 78.8636 6.823C78.7036 6.123 77.3636 5.50302 76.8436 5.28302C75.7336 4.82302 74.4036 4.60302 73.2036 4.59302C71.8936 4.59302 69.1036 4.833 69.5436 6.733" fill="#153F26"/>
<path d="M119.764 0.593062C113.334 10.7431 108.584 21.753 102.804 32.263C97.1438 42.553 90.1138 52.6631 79.5038 58.3031C73.0238 61.7431 65.8138 62.9831 58.5238 62.7531C56.5338 62.6931 57.8038 66.173 58.2338 66.983C59.0638 68.563 60.6938 71.0031 62.7438 71.0731C69.4838 71.2831 76.2338 70.2231 82.4238 67.4631C87.8838 65.0331 92.6638 61.3131 96.7038 56.9331C105.524 47.3631 110.864 35.4731 116.684 24.0031C119.504 18.4431 122.514 12.943 125.864 7.67305C127.394 5.26305 121.534 -2.14696 119.784 0.603042" fill="#153F26"/>
<path d="M151.763 28.5331C145.763 34.1631 141.343 41.4931 139.483 49.5331C137.523 58.0131 138.483 66.973 141.973 74.933C142.493 76.113 144.003 79.213 145.763 78.553C147.463 77.923 146.293 74.2831 145.873 73.3131C145.673 72.8631 145.483 72.4131 145.303 71.9531C145.223 71.7631 145.153 71.563 145.083 71.363C145.263 71.913 145.273 71.9131 145.083 71.3831C144.843 70.5831 144.613 69.783 144.403 68.983C144.063 67.693 144.513 69.8131 144.303 68.5031C144.233 68.0931 144.163 67.6831 144.103 67.2831C144.033 66.8031 143.973 66.3231 143.923 65.8431C143.903 65.6331 143.883 65.4331 143.863 65.2231C143.873 65.4931 143.873 65.4831 143.863 65.2231C143.663 61.7631 144.043 58.493 144.933 55.153C146.843 48.013 150.983 41.693 156.343 36.653C156.863 36.163 156.733 34.693 156.663 34.133C156.503 32.943 156.033 31.673 155.443 30.643C154.793 29.503 153.183 27.203 151.763 28.543" fill="#153F26"/>
<path d="M182.214 68.9831C170.204 68.4831 158.294 69.8831 146.304 70.1331C134.564 70.3731 122.294 69.3431 112.094 62.9731C105.874 59.0831 101.204 53.4531 97.7536 47.0331C96.8136 45.2731 94.4336 48.1231 93.9436 48.8931C92.9936 50.4031 91.6936 53.0331 92.6636 54.8431C95.8536 60.7831 100.144 66.0931 105.624 70.0831C110.464 73.6031 116.074 75.8731 121.884 77.1831C134.584 80.0331 147.544 78.723 160.394 78.023C166.624 77.683 172.894 77.5431 179.124 77.8031C181.974 77.9231 185.464 69.1431 182.204 69.0131" fill="#153F26"/>
<path d="M174.013 110.663C166.143 108.283 157.584 108.123 149.684 110.533C141.354 113.073 134.084 118.383 128.934 125.383C128.174 126.423 126.243 129.283 127.693 130.473C129.093 131.623 131.663 128.803 132.283 127.943C132.573 127.543 132.874 127.153 133.184 126.763C133.314 126.603 133.443 126.433 133.583 126.273C133.203 126.703 133.193 126.713 133.573 126.293C134.143 125.683 134.724 125.093 135.314 124.503C136.264 123.573 134.654 125.013 135.684 124.173C136.004 123.913 136.313 123.643 136.643 123.383C137.023 123.083 137.404 122.793 137.794 122.513C137.964 122.393 138.134 122.273 138.304 122.153C138.084 122.293 138.084 122.293 138.304 122.153C141.204 120.253 144.224 118.943 147.554 118.053C154.694 116.133 162.233 116.563 169.283 118.683C169.973 118.893 171.174 118.043 171.624 117.703C172.574 116.973 173.434 115.933 174.044 114.893C174.704 113.763 175.893 111.223 174.023 110.653" fill="#153F26"/>
<path d="M154.213 157.253C148.643 146.603 141.473 136.983 135.273 126.733C129.193 116.693 123.953 105.543 124.373 93.533C124.633 86.203 127.163 79.3431 131.003 73.1431C132.053 71.4431 128.403 70.803 127.483 70.773C125.703 70.703 122.773 70.8931 121.693 72.6331C118.143 78.3731 115.693 84.743 114.983 91.483C114.353 97.433 115.193 103.423 116.973 109.113C120.853 121.533 128.473 132.103 135.503 142.883C138.913 148.103 142.163 153.463 145.063 158.993C146.383 161.523 155.733 160.153 154.223 157.263" fill="#153F26"/>
</svg>
