<svg width="200" height="80" viewBox="0 0 200 80" fill="none" xmlns="http://www.w3.org/2000/svg">
<path d="M50.6239 76.094C49.7897 72.5303 47.9554 69.1955 45.2741 66.6892C42.4472 64.0465 38.7898 62.4242 34.9556 61.9979C34.3884 61.9352 32.8599 61.83 32.7218 62.6531C32.5892 63.4485 34.2448 63.8084 34.7125 63.8601C34.9298 63.8841 35.1472 63.9117 35.3626 63.9431C35.4547 63.956 35.5468 63.9708 35.6389 63.9874C35.3866 63.9357 35.3847 63.9357 35.6296 63.9874C35.9906 64.0705 36.3479 64.1627 36.7051 64.2605C37.2742 64.4174 36.3626 64.1203 36.9132 64.3288C37.0845 64.3934 37.2595 64.4543 37.4289 64.5226C37.6278 64.602 37.8248 64.685 38.02 64.7736C38.1047 64.8105 38.1876 64.8493 38.2705 64.888C38.1655 64.8345 38.1655 64.8345 38.2742 64.888C39.6498 65.5838 40.8229 66.4549 41.9076 67.54C44.2299 69.8654 45.7418 72.8644 46.4858 76.0534C46.5595 76.3635 47.1507 76.6403 47.3845 76.7363C47.8781 76.9393 48.4692 77.0408 48.9996 77.0426C49.5816 77.0463 50.821 76.9374 50.6239 76.0903" fill="#C4C4C4"/>
<path d="M28.3112 78.831C31.1675 74.315 33.278 69.4133 35.8433 64.7404C38.3553 60.1635 41.4786 55.6623 46.1913 53.1524C49.0678 51.6206 52.2685 51.0706 55.506 51.1721C56.3918 51.1998 55.8265 49.6496 55.6368 49.2897C55.2666 48.5866 54.5447 47.4996 53.6368 47.4719C50.6424 47.3796 47.648 47.852 44.9003 49.0793C42.4731 50.1608 40.3552 51.8162 38.5615 53.7669C34.6463 58.0264 32.2725 63.3138 29.6906 68.4222C28.4401 70.8971 27.0994 73.3442 25.617 75.6899C24.9393 76.7603 27.5414 80.0582 28.3149 78.8328" fill="#C4C4C4"/>
<path d="M14.1014 66.3959C16.7644 63.8915 18.7275 60.6305 19.5525 57.0501C20.4218 53.2761 19.9964 49.2897 18.4476 45.7482C18.2192 45.224 17.5452 43.8454 16.7644 44.137C16.0112 44.4194 16.5268 46.0361 16.7165 46.4679C16.8049 46.6691 16.8896 46.8703 16.9688 47.0751C17.0038 47.1618 17.0369 47.2504 17.0682 47.3372C16.9872 47.0936 16.9854 47.0899 17.0645 47.3279C17.1732 47.6823 17.2708 48.0385 17.3647 48.3983C17.5139 48.9705 17.315 48.0311 17.4108 48.6124C17.4402 48.7933 17.4752 48.9741 17.501 49.1569C17.5323 49.3691 17.5581 49.5813 17.5802 49.7954C17.5894 49.8858 17.5986 49.9781 17.606 50.0704C17.6005 49.9523 17.6005 49.9523 17.606 50.0741C17.6925 51.6151 17.5268 53.0694 17.1308 54.5532C16.2819 57.7311 14.4458 60.5419 12.0628 62.7842C11.8307 63.002 11.8878 63.6553 11.921 63.9044C11.991 64.4341 12.2009 64.997 12.4624 65.4602C12.7515 65.9677 13.4642 66.9883 14.0977 66.394" fill="#C4C4C4"/>
<path d="M0.580477 48.3983C5.91189 48.6198 11.2009 47.9997 16.5232 47.889C21.7349 47.7801 27.186 48.2396 31.7126 51.0743C34.475 52.8054 36.5505 55.308 38.0827 58.1667C38.5026 58.9492 39.5597 57.6831 39.7733 57.3399C40.195 56.6663 40.7733 55.4962 40.3442 54.6952C38.928 52.0506 37.0201 49.6883 34.5873 47.9166C32.4382 46.3516 29.9502 45.3403 27.3665 44.759C21.7275 43.4911 15.9725 44.0743 10.2673 44.388C7.50303 44.5393 4.7167 44.6002 1.95062 44.4858C0.685447 44.4341 -0.863333 48.3393 0.582318 48.4002" fill="#C4C4C4"/>
<path d="M4.22313 29.8509C7.71847 30.9102 11.5195 30.984 15.0241 29.9099C18.722 28.7768 21.9521 26.4163 24.2376 23.2992C24.5764 22.8379 25.4309 21.5645 24.7882 21.0329C24.1676 20.5199 23.0276 21.7767 22.7496 22.1569C22.6206 22.334 22.4881 22.5094 22.3518 22.6792C22.2928 22.753 22.2339 22.825 22.175 22.8969C22.3463 22.705 22.3463 22.7013 22.1805 22.8895C21.9282 23.1627 21.6704 23.4247 21.407 23.685C20.9872 24.1002 21.6999 23.458 21.245 23.8308C21.1032 23.947 20.9632 24.067 20.8196 24.1814C20.652 24.3143 20.4807 24.4435 20.3076 24.569C20.2339 24.6225 20.1584 24.676 20.0829 24.7277C20.1824 24.6631 20.1824 24.6631 20.0811 24.7295C18.792 25.5748 17.4531 26.158 15.9725 26.5566C12.8013 27.4092 9.45325 27.221 6.32623 26.2742C6.02052 26.182 5.48462 26.5584 5.28573 26.7116C4.864 27.0383 4.48095 27.4997 4.21208 27.9592C3.91742 28.463 3.39257 29.5943 4.22313 29.8453" fill="#C4C4C4"/>
<path d="M13.0149 9.11824C15.4881 13.8557 18.6704 18.1373 21.4254 22.6994C24.1252 27.1674 26.453 32.1282 26.267 37.4747C26.1528 40.7376 25.0276 43.79 23.3223 46.5491C22.8564 47.3039 24.4788 47.5881 24.8821 47.6029C25.674 47.6324 26.9742 47.5494 27.453 46.7761C29.0294 44.2237 30.1178 41.3872 30.4327 38.3901C30.7108 35.7436 30.3406 33.0768 29.5506 30.5447C27.8268 25.0156 24.4457 20.3132 21.3223 15.5185C19.8085 13.195 18.3629 10.8087 17.0793 8.34866C16.4918 7.22474 12.3427 7.83376 13.013 9.11824" fill="#C4C4C4"/>
<path d="M30.8637 3.00401C31.6979 6.56772 33.5322 9.90257 36.2135 12.4088C39.0404 15.0516 42.6978 16.6738 46.532 17.1001C47.0992 17.1629 48.6277 17.268 48.7658 16.4449C48.8984 15.6495 47.2428 15.2896 46.7751 15.238C46.5578 15.214 46.3405 15.1863 46.125 15.1549C46.0329 15.142 45.9408 15.1272 45.8488 15.1106C46.1011 15.1623 46.1029 15.1623 45.858 15.1106C45.497 15.0276 45.1397 14.9353 44.7825 14.8375C44.2134 14.6806 45.125 14.9778 44.5744 14.7692C44.4031 14.7046 44.2282 14.6437 44.0587 14.5754C43.8598 14.4961 43.6628 14.413 43.4676 14.3244C43.3829 14.2875 43.3 14.2488 43.2171 14.21C43.3221 14.2635 43.3221 14.2635 43.2134 14.21C41.8378 13.5143 40.6647 12.6432 39.58 11.558C37.2577 9.23265 35.7458 6.23368 35.0018 3.04462C34.9281 2.73457 34.3369 2.45774 34.1031 2.36177C33.6095 2.15877 33.0184 2.05726 32.488 2.05542C31.906 2.05173 30.6648 2.16061 30.8637 3.00771" fill="#C4C4C4"/>
<path d="M53.1764 0.268987C50.3201 4.78498 48.2096 9.68668 45.6443 14.3595C43.1323 18.9364 40.009 23.4377 35.2963 25.9476C32.4198 27.4794 29.2191 28.0293 25.9816 27.9278C25.0958 27.9001 25.6611 29.4504 25.8508 29.8102C26.221 30.5134 26.9429 31.6004 27.8508 31.6281C30.8452 31.7204 33.8396 31.2479 36.5873 30.0206C39.0145 28.9392 41.1323 27.2837 42.9261 25.333C46.8413 21.0735 49.2151 15.7861 51.797 10.6796C53.0475 8.20473 54.3881 5.75757 55.8706 3.41191C56.5483 2.34151 53.948 -0.956439 53.1727 0.268987" fill="#C4C4C4"/>
<path d="M67.3861 12.7023C64.7232 15.2066 62.76 18.4677 61.935 22.048C61.0658 25.8239 61.4912 29.8084 63.04 33.3499C63.2683 33.8741 63.9424 35.2527 64.7232 34.9611C65.4764 34.6787 64.9608 33.062 64.7711 32.6302C64.6827 32.429 64.598 32.2279 64.5188 32.023C64.4838 31.9363 64.4506 31.8477 64.4193 31.761C64.5004 32.0046 64.5022 32.0083 64.423 31.7702C64.3144 31.4158 64.2167 31.0597 64.1228 30.6998C63.9737 30.1277 64.1726 31.067 64.0768 30.4857C64.0473 30.3048 64.0123 30.1221 63.9866 29.9413C63.9552 29.729 63.9295 29.515 63.9074 29.3027C63.8982 29.2123 63.8889 29.12 63.8816 29.0277C63.8871 29.1458 63.8871 29.1458 63.8816 29.024C63.795 27.483 63.9608 26.0288 64.3567 24.545C65.2057 21.367 67.0418 18.5562 69.4248 16.3139C69.6568 16.0962 69.5997 15.4429 69.5666 15.1937C69.4948 14.664 69.2867 14.1012 69.0252 13.6379C68.736 13.1304 68.0233 12.1098 67.3898 12.7041" fill="#C4C4C4"/>
<path d="M80.907 30.6998C75.5756 30.4783 70.2865 31.0984 64.9643 31.2092C59.7526 31.3181 54.3015 30.8585 49.7749 28.0238C47.0125 26.2927 44.937 23.7902 43.4048 20.9315C42.9849 20.149 41.9278 21.415 41.7142 21.7583C41.2925 22.4319 40.7142 23.6019 41.1433 24.4029C42.5595 27.0475 44.4674 29.4098 46.9001 31.1815C49.0493 32.7465 51.5391 33.7578 54.121 34.3392C59.76 35.607 65.5168 35.0239 71.2202 34.7101C73.9845 34.5588 76.769 34.4979 79.5369 34.6123C80.802 34.664 82.3508 30.7589 80.9052 30.698" fill="#C4C4C4"/>
<path d="M77.2644 49.2473C73.7691 48.1879 69.9681 48.1141 66.4635 49.1882C62.7656 50.3214 59.5354 52.6818 57.25 55.7989C56.9112 56.2602 56.0567 57.5337 56.6994 58.0652C57.32 58.5782 58.4599 57.3214 58.738 56.9412C58.8669 56.7641 58.9995 56.5887 59.1358 56.419C59.1929 56.3451 59.2537 56.2732 59.3126 56.2012C59.1432 56.3931 59.1413 56.3968 59.3071 56.2086C59.5594 55.9354 59.8172 55.6734 60.0805 55.4132C60.5004 54.9979 59.7877 55.6402 60.2426 55.2674C60.3844 55.1511 60.5244 55.0311 60.668 54.9167C60.8356 54.7838 61.0069 54.6546 61.18 54.5292C61.2536 54.4756 61.3291 54.4221 61.4046 54.3704C61.3052 54.435 61.3052 54.435 61.4065 54.3686C62.6938 53.5233 64.0344 52.9402 65.5151 52.5415C68.6863 51.6889 72.0343 51.8771 75.1613 52.8239C75.4671 52.9162 76.0011 52.5397 76.2019 52.3865C76.6236 52.0598 77.0066 51.5985 77.2755 51.1389C77.5701 50.6351 78.095 49.5038 77.2644 49.2528" fill="#C4C4C4"/>
<path d="M68.4726 69.9798C65.9975 65.2424 62.8171 60.9608 60.062 56.3986C57.3623 51.9306 55.0345 46.9699 55.2205 41.6234C55.3347 38.3605 56.4599 35.308 58.1652 32.549C58.6311 31.7941 57.0087 31.5099 56.6054 31.4952C55.8116 31.4656 54.5133 31.5487 54.0345 32.322C52.4581 34.8743 51.3697 37.7109 51.0548 40.708C50.7767 43.3545 51.1469 46.0213 51.9369 48.5533C53.6607 54.0825 57.0418 58.7849 60.1652 63.5796C61.679 65.9031 63.1246 68.2893 64.4082 70.7494C64.9957 71.8733 69.1448 71.2643 68.4744 69.9798" fill="#C4C4C4"/>
<path d="M126.452 32.7253L125.776 47.3862C125.688 49.3018 131.113 50.4387 131.181 48.9567L131.857 34.2959C131.945 32.3802 126.52 31.2434 126.452 32.7235" fill="#C4C4C4"/>
<path d="M130.702 46.1939C130.642 45.4446 130.69 46.7974 130.697 46.2825C130.701 46.0721 130.697 45.8636 130.702 45.6532C130.706 45.5406 130.71 45.4299 130.715 45.3192C130.719 45.249 130.771 44.5145 130.737 44.9021C130.699 45.3339 130.771 44.6308 130.772 44.616C130.791 44.4665 130.813 44.3189 130.837 44.1712C130.899 43.7744 130.969 43.3777 131.069 42.9883C131.041 43.0971 130.986 43.2835 131.12 42.8295C131.17 42.6616 131.222 42.4918 131.279 42.3257C131.413 41.9234 131.562 41.5211 131.748 41.139C132.603 39.3821 134.063 37.8448 135.805 37.2026C137.4 36.6138 139.106 36.6397 140.5 37.1933C140.905 37.3557 141.297 37.5532 141.667 37.7839C141.85 37.8965 142.025 38.0183 142.198 38.1438C142.444 38.3228 142.273 38.1991 142.222 38.1567C142.356 38.2656 142.485 38.3837 142.61 38.5018C142.949 38.8211 143.262 39.168 143.548 39.5371C143.63 39.6442 143.711 39.7531 143.791 39.8619C143.568 39.5482 143.739 39.79 143.781 39.8582C143.949 40.1277 144.109 40.399 144.257 40.6795C144.327 40.8105 144.387 40.9471 144.457 41.08C144.737 41.606 144.297 40.6334 144.513 41.2036C144.627 41.5045 144.745 41.8034 144.844 42.1098C144.851 42.1319 145.045 42.7594 144.927 42.3589C144.82 41.9917 145.026 42.7649 145.041 42.8351C145.122 43.1913 145.177 43.5511 145.249 43.9092C145.129 43.3075 145.223 43.7043 145.238 43.8446C145.268 44.1196 145.301 44.3927 145.325 44.6695C145.341 44.8725 145.356 45.0755 145.369 45.2785C145.376 45.4096 145.391 46.1478 145.385 45.5406C145.396 46.552 145.35 47.5578 145.262 48.5654C145.181 49.4956 145.406 51.5109 146.422 51.9464C147.514 52.4152 147.719 50.4386 147.77 49.8536C148.295 43.8833 147.435 35.4179 141.553 32.1311C137.433 29.8278 132.682 31.9114 130.421 35.7686C128.599 38.8764 127.938 42.8295 128.231 46.4043C128.294 47.1573 128.62 49.1615 129.706 49.1062C130.778 49.0526 130.748 46.8103 130.697 46.1902" fill="#C4C4C4"/>
<path d="M168.483 35.0802C168.03 32.1587 165.593 30.149 162.649 30.3317C157.547 30.6473 152.649 34.796 150.516 39.288C148.905 42.6837 148.166 48.3901 151.652 50.9738C153.776 52.5462 156.636 52.1088 158.833 50.948C164.015 48.2111 167.26 42.239 169.63 37.1453C169.44 37.3742 169.252 37.603 169.063 37.8337C169.081 37.8263 169.1 37.8171 169.118 37.8097C168.811 37.7027 168.503 37.5956 168.195 37.4905C168.205 37.5071 168.216 37.5237 168.225 37.5384C168.135 36.2706 168.044 35.0045 167.956 33.7367C167.28 36.5898 166.904 39.5537 166.787 42.4826C166.72 44.1251 166.724 45.8322 167.089 47.4452C167.328 48.5064 167.857 50.2061 169.199 50.2375C169.862 50.2541 170.448 49.7742 170.91 49.3645C171.731 48.6374 172.389 47.7645 173.011 46.8657C173.74 45.8138 173.882 44.3355 173.613 43.1027C173.475 42.4697 172.735 40.9711 171.996 42.0378C171.488 42.7723 170.947 43.4644 170.343 44.1214C170.295 44.1731 170.243 44.2192 170.192 44.269C170.019 44.437 170.38 44.1196 170.208 44.2598C170.122 44.33 170.033 44.4001 169.941 44.4628C169.847 44.5256 169.746 44.5754 169.652 44.6382C169.503 44.7378 169.326 44.7138 169.61 44.6898C169.497 44.6991 169.12 44.6677 169.332 44.7286C169.547 44.7913 169.345 44.7286 169.278 44.6806C169.015 44.4813 169.466 44.8928 169.328 44.7452C169.006 44.3982 169.442 45.094 169.287 44.6732C169.142 44.2746 169.383 45.1826 169.33 44.8448C169.311 44.7286 169.278 44.6105 169.254 44.496C169.153 44.0254 169.311 44.4315 169.273 44.6658C169.293 44.5459 169.241 44.3669 169.23 44.2487C169.219 44.1233 169.212 43.9978 169.205 43.8704C169.199 43.7542 169.186 43.0953 169.19 43.6416C169.194 44.1897 169.19 43.5788 169.192 43.4552C169.192 43.2891 169.195 43.1211 169.201 42.955C169.21 42.6118 169.227 42.2667 169.247 41.9234C169.267 41.5986 169.291 41.2738 169.319 40.949C169.334 40.7736 169.354 40.6001 169.367 40.4248C169.391 40.1185 169.322 40.8308 169.328 40.7865C169.348 40.6647 169.354 40.5411 169.369 40.4174C169.442 39.7678 169.527 39.1182 169.625 38.4723C169.711 37.8909 169.807 37.3096 169.919 36.7338C169.958 36.5308 170.009 36.3315 170.044 36.1285C170.107 35.7723 169.844 37.3723 170.006 36.2964C170.079 35.8129 170.159 35.3607 170.151 34.868C170.14 34.1353 170.022 33.4063 169.63 32.7733C169.418 32.4319 169.072 32.2953 168.707 32.454C168.072 32.729 167.783 33.8179 167.499 34.3974C167.125 35.1614 166.735 35.9162 166.324 36.6618C165.709 37.7784 165.048 38.8635 164.315 39.9062C163.162 41.5414 161.787 43.2005 160.284 44.3761C158.269 45.9522 156.137 46.9377 153.639 46.2714C153.393 46.205 153.564 46.2474 153.566 46.2493C153.47 46.2087 153.372 46.1699 153.277 46.1238C153.08 46.0297 152.89 45.9226 152.708 45.8008C152.542 45.6901 152.395 45.5646 152.24 45.4409C152.164 45.38 152.102 45.3081 152.03 45.2416C152.387 45.5701 152.115 45.3376 152.037 45.2306C151.923 45.07 151.818 44.8965 151.7 44.7397C151.498 44.4702 151.82 45.0977 151.765 44.8707C151.743 44.7803 151.687 44.6695 151.647 44.5846C151.466 44.2137 151.733 44.9002 151.709 44.8227C151.684 44.7415 151.656 44.6455 151.652 44.5625C151.674 45.1734 151.686 44.0107 151.656 44.4462C151.623 44.9261 151.704 44.0144 151.66 44.4942C151.627 44.8504 151.687 44.3576 151.7 44.293C151.776 43.8981 151.588 44.6603 151.702 44.2727C151.735 44.162 151.767 44.0494 151.8 43.9387C151.925 43.5179 151.864 43.7246 151.825 43.828C151.881 43.6803 151.949 43.5345 152.013 43.3924C152.236 42.9107 152.487 42.4494 152.772 42.036C153.446 41.0597 154.244 40.1628 155.116 39.36C156.638 37.9629 158.483 36.7855 160.475 36.2133C162.324 35.6818 164.277 35.608 165.718 36.8703C165.884 37.0161 165.538 36.6618 165.678 36.8242C165.726 36.8796 165.776 36.9331 165.818 36.9903C165.91 37.1158 165.998 37.2413 166.085 37.3668C166.253 37.6086 166.205 37.6547 166.085 37.3299C166.122 37.4314 166.175 37.5292 166.218 37.6289C166.253 37.7138 166.273 37.8097 166.313 37.8909C166.416 38.1013 166.19 37.2432 166.223 37.5827C166.23 37.651 166.256 37.7193 166.267 37.7876C166.387 38.5572 167.1 39.7549 167.884 38.8524C168.711 37.9002 168.665 36.241 168.486 35.0894" fill="#C4C4C4"/>
<path d="M190.033 17.8744C190.037 25.4245 190.04 32.9763 190.044 40.5264C190.044 40.8622 190.046 41.2 190.039 41.5359C190.033 41.63 190.028 41.7223 190.022 41.8145C190.048 41.5303 190.035 41.5562 189.987 41.8957C190.026 41.8164 190.177 41.3901 189.946 41.9695C190.116 41.5451 189.757 42.3756 189.768 42.3571C189.873 42.1596 189.584 42.645 189.565 42.6745C189.042 43.47 188.285 44.1196 187.49 44.6308C184.877 46.3102 181.413 46.7642 178.658 45.1236C177.427 44.3909 176.42 43.3814 175.788 42.108C175.623 41.7739 175.56 41.6171 175.507 41.4454C175.455 41.2793 175.416 41.1114 175.368 40.9453C175.337 40.8401 175.26 40.3861 175.326 40.8161C175.297 40.6297 175.278 39.6257 175.256 40.2071C175.262 40.0797 175.326 39.3415 175.24 40.0576C175.267 39.8269 175.306 39.5981 175.348 39.3711C175.221 40.0576 175.391 39.2751 175.42 39.1699C175.623 38.4188 175.332 39.3489 175.466 39.0278C175.519 38.9004 175.582 38.775 175.632 38.6476C175.834 38.1364 175.346 39.0333 175.672 38.5756C175.844 38.3339 175.991 38.0755 176.166 37.8356C176.508 37.3705 176.02 37.9925 176.252 37.7304C176.398 37.5661 176.545 37.4037 176.702 37.2487C177.693 36.2558 178.866 35.5638 180.21 35.1227C182.02 34.5303 183.947 34.5801 185.772 35.095C187.818 35.6726 189.468 36.8261 191.123 38.1216C193.748 40.1776 195.897 42.6911 197.644 45.5333C198.291 46.5852 199.147 45.5499 199.479 44.8061C199.932 43.7874 200.294 41.9677 199.655 40.9268C197.81 37.9279 195.55 35.1061 192.755 32.9431C189.709 30.5864 186.344 28.6966 182.365 29.2262C178.786 29.7042 175.757 31.9853 174.131 35.1947C172.297 38.8156 171.943 43.8852 174.179 47.4231C175.996 50.2984 179.282 52.0221 182.691 51.6788C187.65 51.1787 191.396 47.3825 192.379 42.5675C192.716 40.9231 192.644 39.2566 192.643 37.5883C192.643 35.1504 192.641 32.7106 192.639 30.2708C192.637 25.7733 192.633 21.2757 192.632 16.78C192.632 16.1249 192.558 14.2258 191.442 14.5912C190.412 14.929 190.035 17.0107 190.035 17.8763" fill="#C4C4C4"/>
<path d="M97.2205 19.6517C98.3217 24.3596 100.747 28.7648 104.289 32.0757C108.023 35.5674 112.854 37.7101 117.922 38.2748C118.671 38.3579 120.69 38.4963 120.872 37.4093C121.047 36.3592 118.861 35.883 118.242 35.8129C117.955 35.7815 117.668 35.7465 117.382 35.7022C117.261 35.6837 117.139 35.6653 117.018 35.6431C117.351 35.7114 117.355 35.7114 117.03 35.6431C116.554 35.5342 116.082 35.4106 115.611 35.2814C114.859 35.0747 116.064 35.4659 115.336 35.1928C115.11 35.1079 114.88 35.0267 114.655 34.9363C114.391 34.8311 114.132 34.7203 113.874 34.6041C113.764 34.5542 113.653 34.5044 113.544 34.4527C113.684 34.5247 113.682 34.5247 113.541 34.4527C111.725 33.5337 110.172 32.3839 108.741 30.9499C105.673 27.8771 103.677 23.9148 102.692 19.7033C102.596 19.2918 101.813 18.9264 101.506 18.8009C100.854 18.5314 100.073 18.4004 99.3714 18.3949C98.6017 18.3893 96.9645 18.5351 97.226 19.6535" fill="#914320"/>
<path d="M126.697 16.0381C122.924 22.0047 120.135 28.4788 116.747 34.6539C113.428 40.7017 109.303 46.6461 103.077 49.9644C99.2756 51.9889 95.0473 52.7142 90.7711 52.5813C89.6017 52.5444 90.3476 54.5929 90.598 55.0672C91.0879 55.9955 92.0418 57.4313 93.2407 57.4682C97.1964 57.59 101.152 56.9644 104.784 55.3459C107.99 53.9156 110.789 51.7305 113.159 49.1523C118.332 43.5253 121.467 36.54 124.879 29.7928C126.533 26.5225 128.301 23.2892 130.26 20.1924C131.155 18.7769 127.719 14.4215 126.697 16.04" fill="#914320"/>
<path d="M117.17 60.4894H118.073L119.266 63.003L120.478 60.4894H121.38V64.496H120.526V62.1042L119.533 64.496H118.988L118.025 62.1227V64.496H117.17V60.4894Z" fill="#C4C4C4"/>
<path d="M125.076 64.3003C124.756 64.1305 124.498 63.8906 124.307 63.5806C124.115 63.2705 124.019 62.9199 124.019 62.5268C124.019 62.1134 124.115 61.748 124.307 61.4287C124.498 61.1094 124.756 60.8621 125.078 60.6886C125.4 60.5152 125.752 60.4284 126.132 60.4284C126.511 60.4284 126.859 60.5152 127.176 60.6886C127.493 60.8621 127.743 61.1057 127.927 61.4195C128.111 61.7332 128.203 62.0894 128.203 62.4899C128.203 62.8904 128.111 63.2355 127.927 63.5492C127.743 63.8629 127.493 64.1084 127.176 64.2856C126.859 64.4627 126.509 64.5532 126.124 64.5532C125.739 64.5532 125.395 64.4683 125.075 64.2985M125.043 63.1746C125.156 63.3757 125.308 63.5308 125.498 63.6452C125.688 63.7578 125.898 63.815 126.128 63.815C126.358 63.815 126.566 63.7596 126.752 63.6489C126.938 63.5381 127.084 63.3813 127.191 63.182C127.297 62.9826 127.351 62.7556 127.351 62.5046C127.351 62.2537 127.297 62.0101 127.191 61.807C127.084 61.604 126.936 61.4472 126.752 61.3364C126.568 61.2257 126.358 61.1703 126.128 61.1703C125.898 61.1703 125.688 61.2257 125.494 61.3364C125.303 61.4472 125.152 61.6059 125.04 61.8107C124.929 62.0156 124.874 62.2463 124.874 62.5046C124.874 62.763 124.931 62.9753 125.043 63.1746Z" fill="#C4C4C4"/>
<path d="M131.638 64.3557C131.384 64.2229 131.187 64.0365 131.05 63.7984C130.914 63.5603 130.844 63.2817 130.844 62.9661V60.4894H131.691V62.8978C131.691 63.1728 131.763 63.3942 131.907 63.5622C132.05 63.7301 132.257 63.8132 132.527 63.8132C132.798 63.8132 132.997 63.7301 133.139 63.5622C133.281 63.3942 133.351 63.1728 133.351 62.8978V60.4894H134.198V62.9661C134.198 63.278 134.13 63.5529 133.992 63.7947C133.853 64.0365 133.66 64.2229 133.408 64.3557C133.155 64.4886 132.859 64.5569 132.52 64.5569C132.181 64.5569 131.89 64.4905 131.636 64.3557" fill="#C4C4C4"/>
<path d="M136.84 60.4894H137.584L139.305 63.0639V60.4894H140.153V64.496H139.426L137.688 61.9713V64.496H136.84V60.4894Z" fill="#C4C4C4"/>
<path d="M143.763 61.2313L142.557 61.2239V60.4894H145.815V61.2239L144.61 61.2313L144.605 64.496H143.756L143.763 61.2313Z" fill="#C4C4C4"/>
<path d="M152.271 60.4894H153.888C154.453 60.4894 154.853 60.6149 155.091 60.8659C155.326 61.1169 155.444 61.4214 155.444 61.7812C155.444 62.1005 155.371 62.3718 155.223 62.5951C155.076 62.8184 154.838 62.955 154.512 63.0085L154.337 63.0141L155.234 64.4942H154.29L153.411 63.0141H153.12V64.4942H152.273V60.4894H152.271ZM153.888 62.3109C154.122 62.3109 154.297 62.2685 154.415 62.1836C154.531 62.0987 154.59 61.9658 154.59 61.7831C154.59 61.6004 154.533 61.473 154.417 61.3734C154.302 61.2737 154.122 61.2257 153.881 61.2257H153.118V62.3128H153.888V62.3109Z" fill="#C4C4C4"/>
<path d="M157.842 60.4894H160.676V61.3402H158.697V62.1171H160.441V62.8516H158.697V63.6341H160.671V64.4831H157.842V60.4894Z" fill="#C4C4C4"/>
<path d="M164.195 64.3981C163.958 64.2929 163.763 64.1416 163.614 63.9423C163.464 63.7448 163.383 63.5068 163.37 63.2318H164.146C164.162 63.4551 164.253 63.6193 164.418 63.7301C164.584 63.8389 164.759 63.8943 164.945 63.8943C165.131 63.8943 165.297 63.85 165.433 63.7633C165.567 63.6765 165.636 63.5455 165.636 63.372C165.636 63.1986 165.569 63.0749 165.435 62.9919C165.302 62.9088 165.096 62.8461 164.818 62.7999C164.354 62.7427 163.987 62.6154 163.718 62.4142C163.45 62.2149 163.315 61.9362 163.315 61.58C163.315 61.3456 163.381 61.1408 163.514 60.9673C163.647 60.7938 163.823 60.6591 164.044 60.5668C164.265 60.4746 164.507 60.4266 164.768 60.4266C165.03 60.4266 165.291 60.4783 165.525 60.5816C165.759 60.685 165.951 60.8344 166.098 61.0301C166.245 61.2257 166.323 61.4564 166.332 61.7184H165.551C165.534 61.5044 165.453 61.3456 165.306 61.2423C165.159 61.1389 164.98 61.0873 164.77 61.0873C164.593 61.0873 164.442 61.1353 164.319 61.2294C164.195 61.3235 164.135 61.449 164.135 61.6022C164.135 61.7443 164.197 61.8587 164.323 61.9454C164.448 62.0322 164.643 62.0968 164.91 62.1374C165.435 62.2149 165.827 62.3551 166.085 62.5618C166.343 62.7685 166.464 63.0657 166.448 63.4532C166.44 63.6968 166.367 63.8999 166.227 64.0659C166.087 64.232 165.908 64.3538 165.687 64.4332C165.468 64.5126 165.229 64.5513 164.969 64.5513C164.691 64.5513 164.431 64.4996 164.194 64.3944" fill="#C4C4C4"/>
<path d="M170.146 64.3003C169.825 64.1305 169.567 63.8906 169.376 63.5806C169.184 63.2705 169.089 62.9199 169.089 62.5268C169.089 62.1134 169.184 61.748 169.376 61.4287C169.567 61.1094 169.825 60.8621 170.148 60.6886C170.47 60.5152 170.822 60.4284 171.201 60.4284C171.58 60.4284 171.928 60.5152 172.245 60.6886C172.562 60.8621 172.812 61.1057 172.996 61.4195C173.181 61.7332 173.273 62.0894 173.273 62.4899C173.273 62.8904 173.181 63.2355 172.996 63.5492C172.812 63.8629 172.562 64.1084 172.245 64.2856C171.928 64.4627 171.578 64.5532 171.194 64.5532C170.809 64.5532 170.464 64.4683 170.144 64.2985M170.111 63.1746C170.223 63.3757 170.376 63.5308 170.566 63.6452C170.755 63.7578 170.965 63.815 171.195 63.815C171.426 63.815 171.634 63.7596 171.82 63.6489C172.006 63.5381 172.151 63.3813 172.258 63.182C172.365 62.9826 172.418 62.7556 172.418 62.5046C172.418 62.2537 172.365 62.0101 172.258 61.807C172.151 61.604 172.004 61.4472 171.82 61.3364C171.634 61.2257 171.426 61.1703 171.195 61.1703C170.965 61.1703 170.753 61.2257 170.562 61.3364C170.37 61.4472 170.219 61.6059 170.107 61.8107C169.997 62.0156 169.941 62.2463 169.941 62.5046C169.941 62.763 169.998 62.9753 170.111 63.1746Z" fill="#C4C4C4"/>
<path d="M175.914 60.4894H177.53C178.096 60.4894 178.495 60.6149 178.733 60.8659C178.969 61.1169 179.087 61.4214 179.087 61.7812C179.087 62.1005 179.013 62.3718 178.866 62.5951C178.718 62.8184 178.481 62.955 178.155 63.0085L177.98 63.0141L178.877 64.4942H177.932L177.054 63.0141H176.763V64.4942H175.915V60.4894H175.914ZM177.53 62.3109C177.764 62.3109 177.939 62.2685 178.057 62.1836C178.175 62.0987 178.232 61.9658 178.232 61.7831C178.232 61.6004 178.175 61.473 178.059 61.3734C177.945 61.2737 177.766 61.2257 177.523 61.2257H176.761V62.3128H177.53V62.3109Z" fill="#C4C4C4"/>
<path d="M182.932 61.2313L181.728 61.2239V60.4894H184.985V61.2239L183.779 61.2313L183.774 64.496H182.926L182.932 61.2313Z" fill="#C4C4C4"/>
<path d="M193.65 13.7755V11.7731H194.875C195.239 11.7731 195.536 11.9282 195.536 12.3176C195.536 12.707 195.274 12.8989 194.968 12.9044H194.753L195.526 13.7774H195.199L194.447 12.9044H193.926V13.7774H193.65V13.7755ZM193.926 12.7291H194.873C195.088 12.7291 195.267 12.6018 195.267 12.3637C195.267 12.109 195.094 11.9983 194.873 11.9983H193.926V12.7273V12.7291Z" fill="#C4C4C4"/>
<path d="M194.519 14.7979C193.392 14.7979 192.477 13.8789 192.477 12.7512C192.477 11.6236 193.394 10.7046 194.519 10.7046C195.644 10.7046 196.562 11.6236 196.562 12.7512C196.562 13.8789 195.644 14.7979 194.519 14.7979ZM194.519 10.8319C193.464 10.8319 192.604 11.6919 192.604 12.7512C192.604 13.8106 193.462 14.6706 194.519 14.6706C195.576 14.6706 196.435 13.8106 196.435 12.7512C196.435 11.6919 195.576 10.8319 194.519 10.8319Z" fill="#C4C4C4"/>
</svg>
