<svg width="1127" height="486" viewBox="0 0 1127 486" fill="none" xmlns="http://www.w3.org/2000/svg">
<g clip-path="url(#clip0_1_126)">
<path opacity="0.2" d="M1118.11 -218.028C1044.5 -221.078 971.46 -212.538 897.99 -211.008C894.76 -210.938 891.51 -210.888 888.27 -210.858C887.6 -213.248 886.96 -215.638 886.33 -218.038C886.17 -218.648 886.04 -219.118 885.94 -219.498C885.88 -219.888 885.81 -220.378 885.7 -220.998C885.29 -223.498 884.82 -225.998 884.45 -228.508C884.02 -231.428 883.66 -234.368 883.36 -237.308C883.22 -238.568 883.11 -239.828 883.01 -241.088C883.09 -239.448 883.09 -239.468 883.01 -241.138C881.81 -262.368 884.1 -282.408 889.57 -302.848C901.3 -346.638 926.64 -385.368 959.54 -416.248C962.75 -419.258 961.96 -428.248 961.5 -431.698C960.52 -438.998 957.64 -446.748 954.01 -453.128C950.03 -460.118 940.17 -474.188 931.43 -465.988C894.66 -431.478 867.55 -386.548 856.15 -337.238C846.51 -295.488 848.4 -251.888 860.58 -211.068C800.48 -212.678 740 -222.588 688.28 -254.908C660.34 -272.368 637.5 -295.558 618.97 -322.188C658.76 -374.698 686.51 -435.138 716.26 -493.858C733.54 -527.958 752.03 -561.688 772.51 -593.988C781.87 -608.748 745.95 -654.168 735.26 -637.298C695.81 -575.078 666.69 -507.558 631.28 -443.158C629.72 -440.328 628.14 -437.488 626.54 -434.668C624.14 -435.278 621.75 -435.918 619.36 -436.578C618.76 -436.748 618.29 -436.868 617.9 -436.968C617.53 -437.118 617.08 -437.288 616.48 -437.508C614.1 -438.398 611.71 -439.248 609.35 -440.178C606.6 -441.268 603.88 -442.418 601.18 -443.638C600.02 -444.148 598.87 -444.678 597.73 -445.218C599.19 -444.468 599.17 -444.468 597.68 -445.238C578.7 -454.818 562.48 -466.828 547.52 -481.778C515.46 -513.828 494.59 -555.138 484.3 -599.078C483.3 -603.358 475.11 -607.178 471.9 -608.498C465.09 -611.298 456.93 -612.678 449.6 -612.728C441.55 -612.778 424.44 -611.268 427.17 -599.608C438.68 -550.518 464.03 -504.558 501.03 -470.048C532.36 -440.828 571.06 -420.668 612.5 -410.798C581.06 -359.548 542.24 -312.128 488.39 -283.498C459.29 -268.028 427.8 -259.848 395.47 -257.108C369.89 -317.818 331.43 -372.078 295.45 -427.198C274.56 -459.208 254.59 -492.088 236.86 -525.978C228.76 -541.468 171.46 -533.068 180.72 -515.368C214.88 -450.098 258.8 -391.108 296.86 -328.248C298.54 -325.478 300.2 -322.698 301.85 -319.908C300.12 -318.138 298.37 -316.388 296.6 -314.638C296.15 -314.198 295.81 -313.858 295.54 -313.568C295.23 -313.328 294.85 -313.018 294.36 -312.618C292.4 -311.008 290.47 -309.358 288.48 -307.778C286.16 -305.938 283.8 -304.158 281.4 -302.428C280.38 -301.678 279.34 -300.948 278.3 -300.228C279.68 -301.118 279.67 -301.108 278.26 -300.198C260.47 -288.548 241.97 -280.508 221.54 -275.028C177.75 -263.288 131.54 -265.878 88.3402 -278.928C84.1302 -280.198 76.7302 -275.018 73.9802 -272.898C68.1502 -268.398 62.8802 -262.028 59.1702 -255.698C55.1002 -248.758 47.8502 -233.178 59.3202 -229.718C107.59 -215.138 160.06 -214.118 208.46 -228.908C249.43 -241.428 286.25 -264.868 315.51 -295.828C344.17 -242.968 365.82 -185.648 363.69 -124.688C362.54 -91.7582 353.88 -60.3882 340.08 -31.0182C274.71 -39.2182 208.49 -33.0382 142.76 -29.4382C104.59 -27.3482 66.1402 -26.4982 27.9202 -28.0882C10.4602 -28.8082 -10.9198 25.0018 9.04017 25.8318C82.6502 28.8818 155.69 20.3418 229.16 18.8118C232.39 18.7418 235.64 18.6918 238.88 18.6618C239.55 21.0518 240.19 23.4418 240.82 25.8418C240.98 26.4518 241.11 26.9218 241.21 27.2918C241.27 27.6818 241.34 28.1718 241.45 28.7918C241.86 31.2918 242.33 33.7918 242.7 36.3018C243.13 39.2218 243.49 42.1618 243.79 45.1018C243.93 46.3618 244.04 47.6218 244.14 48.8818C244.06 47.2418 244.06 47.2618 244.14 48.9318C245.34 70.1618 243.05 90.2018 237.58 110.642C225.85 154.432 200.51 193.162 167.61 224.042C164.4 227.052 165.19 236.052 165.65 239.492C166.63 246.792 169.51 254.542 173.14 260.922C177.12 267.912 186.98 281.982 195.72 273.782C232.48 239.272 259.6 194.342 270.99 145.032C280.63 103.282 278.74 59.6818 266.56 18.8618C326.67 20.4718 387.14 30.3818 438.86 62.7018C466.8 80.1618 489.64 103.352 508.17 129.982C468.38 182.492 440.63 242.932 410.88 301.652C393.6 335.752 375.11 369.482 354.63 401.782C345.27 416.542 381.19 461.962 391.88 445.092C431.33 382.872 460.45 315.352 495.86 250.952C497.42 248.122 499 245.282 500.59 242.462C502.99 243.072 505.38 243.712 507.77 244.372C508.38 244.542 508.85 244.662 509.23 244.762C509.6 244.902 510.05 245.082 510.65 245.302C513.02 246.192 515.42 247.042 517.78 247.972C520.53 249.062 523.25 250.212 525.95 251.432C527.11 251.942 528.26 252.472 529.4 253.012C527.94 252.262 527.96 252.262 529.45 253.032C548.43 262.612 564.65 274.622 579.61 289.572C611.67 321.622 632.54 362.932 642.83 406.872C643.83 411.152 652.02 414.972 655.23 416.292C662.04 419.092 670.2 420.472 677.53 420.522C685.58 420.572 702.69 419.062 699.96 407.402C688.45 358.302 663.1 312.352 626.1 277.832C594.77 248.612 556.07 228.452 514.63 218.582C546.07 167.332 584.89 119.912 638.74 91.2818C667.83 75.8118 699.33 67.6318 731.66 64.8918C757.24 125.602 795.7 179.862 831.68 234.982C852.57 266.992 872.54 299.872 890.27 333.762C898.37 349.242 955.67 340.852 946.41 323.152C912.25 257.882 868.33 198.892 830.27 136.032C828.59 133.262 826.93 130.482 825.28 127.692C827.01 125.922 828.76 124.172 830.53 122.422C830.98 121.982 831.32 121.642 831.6 121.362C831.91 121.122 832.29 120.812 832.78 120.402C834.74 118.792 836.67 117.142 838.66 115.562C840.98 113.722 843.34 111.942 845.74 110.212C846.76 109.462 847.8 108.732 848.84 108.012C847.46 108.902 847.47 108.892 848.88 107.982C866.67 96.3318 885.17 88.2918 905.6 82.8118C949.39 71.0718 995.6 73.6618 1038.79 86.7118C1043 87.9818 1050.4 82.8018 1053.15 80.6818C1058.98 76.1818 1064.25 69.8118 1067.96 63.4818C1072.03 56.5418 1079.28 40.9618 1067.81 37.5018C1019.54 22.9218 967.07 21.9018 918.67 36.6918C877.7 49.2118 840.88 72.6518 811.62 103.612C782.96 50.7518 761.31 -6.5682 763.44 -67.5282C764.59 -100.458 773.25 -131.828 787.05 -161.198C852.42 -152.998 918.63 -159.178 984.36 -162.778C1022.53 -164.868 1060.98 -165.718 1099.2 -164.128C1116.66 -163.408 1138.04 -217.218 1118.08 -218.048L1118.11 -218.028ZM620.91 35.1718C592.05 48.0218 566.34 66.7218 543.94 88.8418C526.38 62.0418 504.66 38.1618 478.56 19.1818C453 0.611824 423.95 -12.2982 393.59 -20.6382C408.02 -49.2482 417.85 -79.9982 421.22 -112.088C424.53 -143.508 421.19 -175.118 413.23 -205.578C445.22 -207.388 476.76 -214.248 506.24 -227.368C535.1 -240.218 560.81 -258.918 583.21 -281.038C600.77 -254.238 622.49 -230.348 648.59 -211.378C674.15 -192.808 703.2 -179.898 733.56 -171.558C719.13 -142.948 709.3 -112.198 705.93 -80.1082C702.62 -48.6882 705.96 -17.0682 713.92 13.3818C681.93 15.1918 650.39 22.0518 620.92 35.1718H620.91Z" stroke="#C4C4C4" stroke-width="1.5" stroke-miterlimit="10"/>
</g>
<defs>
<clipPath id="clip0_1_126">
<rect width="1126.8" height="1091.47" fill="white" transform="translate(0 -606)"/>
</clipPath>
</defs>
</svg>
